<svg id="Capa_1" enable-background="new 0 0 512 512" height="512" viewBox="0 0 512 512" width="512" xmlns="http://www.w3.org/2000/svg"><g><g><g><path d="m512 256c0 141.363-114.637 256-256 256-5.274 0-10.516-.164-15.708-.471l-11.899-43.581c-14.582-53.391-63.089-90.43-118.436-90.43h-79.319c-19.538-36.157-30.638-77.548-30.638-121.518 0-46.08 12.186-89.344 33.536-126.72.051-.102.102-.205.154-.256 44.083-77.107 127.129-129.024 222.31-129.024 27.29 0 53.576 4.27 78.234 12.175l3.973 6.072c4.762 7.28 14.715 8.98 21.627 3.676 38.134 16.937 71.352 42.926 96.932 75.244l-.604 3.389c-1.689 9.585 5.96 18.258 15.678 17.756 2.232 3.512 4.393 7.086 6.472 10.711.051.051.102.154.154.256 21.348 37.377 33.534 80.641 33.534 126.721z" fill="#ffe706"/><g><path d="m512 256c0 141.36-114.64 256-256 256-5.27 0-10.51-.16-15.7-.48h-.01l-11.9-43.57c-14.58-53.39-63.09-90.43-118.43-90.43h-52.66c-8.96-5.9-19.73-9.37-31.47-9.37-16.54-33.87-25.83-71.93-25.83-112.15 0-46.08 12.19-89.34 33.54-126.72.05-.1.1-.2.15-.26 25.39 44.39 63.69 80.44 109.82 103.02 4.14 2.03 8.38 3.96 12.66 5.77 1.12.47 2.24.94 3.37 1.4 29.03 11.82 60.72 18.48 93.9 18.79h5.12c33.18-.31 64.87-6.97 93.9-18.79 5.43-2.21 10.8-4.61 16.03-7.17 13.29-6.51 25.94-14.14 37.81-22.78 29.31-21.29 53.94-48.65 72.01-80.24.05.06.1.16.15.26 21.35 37.38 33.54 80.64 33.54 126.72z" fill="#ffbf03"/></g></g><g><path d="m227.38 166.59-71.21 71.22-130.34 130.34c1.54 3.16 3.14 6.28 4.81 9.37 18.77 34.74 45.35 64.65 77.37 87.39.01.01.02.01.03.02l116.31-61.66c92.07-48.81 158.45-135.15 181.95-236.68zm81.92 97.03c-.08-.08-.16-.16-.23-.24-13.22-13.5-12.44-35.54 2.24-48.03 12.14-10.32 30.34-10.31 42.46.05.57.49 1.12.99 1.65 1.51.1.09.2.19.3.29h.02c12.79 12.81 12.79 33.57-.03 46.4-12.81 12.8-33.6 12.82-46.41.02z" fill="#d61d64"/><path d="m406.3 166.59v178.93l-166.01 166.01c-13.18-.8-26.08-2.59-38.63-5.32.44-10.7-12.17-16.71-20.2-9.63l-3.66 3.23c-23.81-7.61-46.1-18.64-66.32-32.49-1.15-.79-2.3-1.59-3.44-2.39l201.03-201.55c.07.08.15.16.23.24 12.81 12.8 33.6 12.78 46.41-.02 12.82-12.83 12.82-33.59.03-46.4-.01 0-.01 0-.02 0-.1-.1-.2-.2-.3-.29l50.18-50.32z" fill="#bf0d56"/><path d="m244.64 297.91-33.48-71.15-153.21 153.21 67.5 67.5.35-.08 22.24-4.97c53.13-11.87 94.31-53.85 105.17-107.18l3.98-19.51c-5.13-5.13-9.41-11.16-12.55-17.82z" fill="#fd4b4a"/><path d="m346.24 361.63-144.58 144.58c-8.11-1.75-16.07-3.89-23.86-6.4l-52.35-52.34 131.74-131.74c5.13 5.13 11.17 9.41 17.82 12.54z" fill="#e72669"/></g><path d="m471.839 118.313-105.421 106.281c-3.615 3.645-8.428 5.581-13.343 5.581-2.417 0-4.854-.461-7.189-1.423-7.086-2.918-11.653-9.749-11.653-17.408v-199.169c8.755 2.806 17.295 6.062 25.6 9.748v172.964l96.932-97.72c5.376 6.779 10.404 13.835 15.074 21.146z" fill="#4c1760"/><path d="m464.538 107.499-107.203 108.084c-3.789 3.819-10.302 1.137-10.302-4.239v-194.684c4.321 1.639 8.591 3.4 12.8 5.263v172.964l96.932-97.72c2.673 3.38 5.274 6.82 7.773 10.332z" fill="#3a004d"/></g><g><path d="m263.7 358.48-83.31 34.05-50.23 20.53-5.21-12.74 80.6-32.95 52.94-21.64z" fill="#4c1760"/><path d="m194.185 357.577c-7.298 0-14.32-2.584-19.578-7.841-11.384-11.384-10.237-31.054 2.557-43.848 12.793-12.794 32.463-13.941 43.847-2.556 5.655 5.654 8.419 13.434 7.784 21.909-.606 8.085-4.278 15.876-10.34 21.939-6.886 6.884-15.765 10.397-24.27 10.397zm7.235-48.369c-4.943 0-10.299 2.192-14.521 6.415-7.426 7.426-8.573 18.363-2.557 24.379 6.017 6.015 16.954 4.869 24.379-2.557 3.733-3.733 5.987-8.433 6.346-13.234.331-4.412-1.015-8.37-3.79-11.145-2.596-2.595-6.108-3.858-9.857-3.858zm12.167 33.104h.009z" fill="#4c1760"/><path d="m184.236 463.979c-7.298 0-14.32-2.584-19.577-7.841-11.384-11.384-10.237-31.054 2.557-43.848 12.793-12.793 32.463-13.94 43.847-2.557 5.654 5.654 8.419 13.435 7.784 21.908-.606 8.086-4.278 15.877-10.34 21.939-6.886 6.886-15.766 10.399-24.271 10.399zm7.235-48.37c-4.942 0-10.299 2.192-14.521 6.414-7.426 7.427-8.573 18.363-2.557 24.379 6.016 6.015 16.953 4.869 24.379-2.557 3.733-3.733 5.987-8.432 6.346-13.233.331-4.412-1.015-8.37-3.79-11.145-2.595-2.595-6.107-3.858-9.857-3.858z" fill="#3a004d"/></g><path d="m263.7 358.48-83.31 34.05 25.16-25.16 52.94-21.64z" fill="#3a004d"/></g></svg>